HIERARCHY
ROOT Hips
{
	OFFSET 0.000000 0.000000 0.000000
	CHANNELS 6 Xposition Yposition Zposition Zrotation Xrotation Yrotation
	JOINT Spine1
	{
		OFFSET 0.000000 -0.000016 97.193146
		CHANNELS 6 Xposition Yposition Zposition Zrotation Xrotation Yrotation
		JOINT Neck
		{
			OFFSET 0.000000 -0.000013 77.485802
			CHANNELS 6 Xposition Yposition Zposition Zrotation Xrotation Yrotation
			JOINT Head
			{
				OFFSET 0.000000 -6.357267 49.268803
				CHANNELS 6 Xposition Yposition Zposition Zrotation Xrotation Yrotation
				End Site
				{
					OFFSET 0.000000 -0.000010 63.572445
				}
			}
		}
		JOINT LeftShoulder
		{
			OFFSET 12.801845 1.680424 62.565639
			CHANNELS 6 Xposition Yposition Zposition Zrotation Xrotation Yrotation
			JOINT LeftArm
			{
				OFFSET 45.680595 0.000000 0.000000
				CHANNELS 6 Xposition Yposition Zposition Zrotation Xrotation Yrotation
				JOINT LeftForeArm
				{
					OFFSET 89.572342 0.000000 0.000000
					CHANNELS 6 Xposition Yposition Zposition Zrotation Xrotation Yrotation
					JOINT LeftHand
					{
						OFFSET 83.245735 0.000000 0.000000
						CHANNELS 6 Xposition Yposition Zposition Zrotation Xrotation Yrotation
						End Site
						{
							OFFSET 47.679340 0.000000 0.000000
						}
					}
				}
			}
		}
		JOINT RightShoulder
		{
			OFFSET -12.625236 1.680424 62.565639
			CHANNELS 6 Xposition Yposition Zposition Zrotation Xrotation Yrotation
			JOINT RightArm
			{
				OFFSET -45.680595 0.000000 0.000000
				CHANNELS 6 Xposition Yposition Zposition Zrotation Xrotation Yrotation
				JOINT RightForeArm
				{
					OFFSET -89.572350 0.000000 0.000000
					CHANNELS 6 Xposition Yposition Zposition Zrotation Xrotation Yrotation
					JOINT RightHand
					{
						OFFSET -83.245758 0.000000 0.000000
						CHANNELS 6 Xposition Yposition Zposition Zrotation Xrotation Yrotation
						End Site
						{
							OFFSET -47.679340 0.000000 0.000000
						}
					}
				}
			}
		}
	}
	JOINT LeftUpLeg
	{
		OFFSET 31.786301 0.000000 0.000000
		CHANNELS 6 Xposition Yposition Zposition Zrotation Xrotation Yrotation
		JOINT LeftLeg
		{
			OFFSET 0.000000 0.000022 -133.682144
			CHANNELS 6 Xposition Yposition Zposition Zrotation Xrotation Yrotation
			JOINT LeftFoot
			{
				OFFSET 0.000000 0.000023 -140.150513
				CHANNELS 6 Xposition Yposition Zposition Zrotation Xrotation Yrotation
				JOINT LeftToeBase
				{
					OFFSET 0.000000 -47.679440 -20.661087
					CHANNELS 6 Xposition Yposition Zposition Zrotation Xrotation Yrotation
					End Site
					{
						OFFSET 0.000000 -12.714491 0.000000
					}
				}
			}
		}
	}
	JOINT RightUpLeg
	{
		OFFSET -31.786301 0.000000 0.000000
		CHANNELS 6 Xposition Yposition Zposition Zrotation Xrotation Yrotation
		JOINT RightLeg
		{
			OFFSET 0.000000 0.000022 -133.682144
			CHANNELS 6 Xposition Yposition Zposition Zrotation Xrotation Yrotation
			JOINT RightFoot
			{
				OFFSET 0.000000 0.000023 -140.150513
				CHANNELS 6 Xposition Yposition Zposition Zrotation Xrotation Yrotation
				JOINT RightToeBase
				{
					OFFSET 0.000000 -47.679440 -20.661087
					CHANNELS 6 Xposition Yposition Zposition Zrotation Xrotation Yrotation
					End Site
					{
						OFFSET 0.000000 -12.714491 0.000000
					}
				}
			}
		}
	}
}
MOTION
Frames: 10
Frame Time: 0.016667
10.990882 15.083586 260.933136 2.321249 11.644960 -1.484607 -0.000003 -0.000011 97.193130 -1.260536 -5.134360 -4.388903 -0.000003 -0.000010 77.485847 2.566712 5.719504 -2.454551 0.000001 -6.357247 49.268757 3.029359 9.960382 3.548843 12.801843 1.680426 62.565678 0.092900 -8.889846 -21.667617 45.680569 -0.000001 -0.000052 -8.353394 -9.949527 8.424306 89.572365 0.000006 0.000000 -1.958462 -9.683146 -2.628853 83.245728 -0.000006 0.000006 3.917414 -9.465426 7.756330 -12.625240 1.680422 62.565655 -6.162881 -4.679598 18.289322 -45.680611 -0.000001 -0.000051 20.932353 21.986809 -1.849126 -89.572372 -0.000005 0.000005 66.873214 35.506742 47.151528 -83.245804 0.000070 0.000006 5.605003 5.440236 28.128944 31.786295 0.000003 -0.000013 19.050116 -35.338446 -14.124811 -0.000016 0.000026 -133.682190 6.859589 33.304870 6.372816 -0.000012 0.000018 -140.150528 15.106594 0.260709 8.253559 0.000003 -47.679424 -20.661110 -0.000001 0.000002 0.000001 -31.786303 0.000005 -0.000008 5.643539 -29.410467 30.469740 0.000015 0.000023 -133.682159 -15.580213 40.125254 -20.193598 0.000007 0.000023 -140.150513 -32.494748 -13.409639 2.417767 0.000009 -47.679436 -20.661110 -0.000001 0.000002 0.000000 
11.215076 15.010816 260.725342 2.261051 11.568241 -1.495872 0.000002 -0.000006 97.193130 -1.202918 -5.052497 -4.428539 -0.000001 -0.000012 77.485817 2.560074 5.749437 -2.394912 -0.000008 -6.357251 49.268757 3.016242 10.007667 3.567247 12.801840 1.680423 62.565613 0.115450 -8.887615 -21.639258 45.680611 -0.000004 0.000008 -8.332676 -9.948064 8.472885 89.572357 -0.000004 0.000004 -1.944444 -9.716085 -2.634752 83.245766 0.000013 -0.000003 3.943849 -9.494821 7.802548 -12.625237 1.680426 62.565655 -6.166198 -4.645137 18.277771 -45.680584 -0.000009 -0.000074 20.932262 21.914980 -1.964994 -89.572342 0.000009 0.000056 67.138430 35.692755 47.190224 -83.245773 -0.000011 0.000042 5.588468 5.442591 27.985698 31.786303 0.000007 0.000001 19.024589 -35.344836 -14.298564 0.000003 0.000018 -133.682144 6.826347 33.621261 6.620832 0.000002 0.000030 -140.150513 15.154296 -0.090948 8.402437 0.000003 -47.679440 -20.661085 0.000003 -0.000000 -0.000001 -31.786297 0.000007 -0.000003 5.537793 -29.217995 30.708773 -0.000009 0.000030 -133.682144 -15.943854 40.164033 -20.347463 0.000005 0.000014 -140.150528 -32.548075 -13.318565 1.980882 -0.000003 -47.679428 -20.661087 -0.000003 0.000001 0.000000 
11.450443 14.944557 260.504913 2.180122 11.514035 -1.483382 0.000000 -0.000018 97.193123 -1.128713 -4.995679 -4.491201 -0.000005 -0.000018 77.485794 2.555072 5.796550 -2.325058 -0.000001 -6.357290 49.268703 3.003031 10.012495 3.547429 12.801838 1.680423 62.565601 0.101431 -8.902394 -21.644803 45.680580 -0.000001 -0.000040 -8.288760 -9.919788 8.550099 89.572327 0.000009 -0.000004 -1.915154 -9.762169 -2.605469 83.245720 0.000011 0.000036 3.977094 -9.538146 7.785322 -12.625240 1.680424 62.565613 -6.140711 -4.642047 18.247301 -45.680595 0.000003 0.000050 20.908123 21.805685 -2.066224 -89.572327 0.000008 0.000019 67.347824 35.948781 47.198082 -83.245789 -0.000005 0.000012 5.534961 5.590458 27.930998 31.786303 0.000004 0.000005 19.062394 -35.403968 -14.428186 -0.000013 0.000021 -133.682159 6.932063 33.967624 6.719473 0.000002 0.000002 -140.150497 15.038147 -0.427412 8.548672 -0.000004 -47.679447 -20.661083 -0.000000 -0.000003 -0.000002 -31.786303 0.000002 -0.000004 5.434014 -29.068267 30.924481 -0.000003 0.000028 -133.682129 -16.270395 40.202326 -20.503263 -0.000009 0.000025 -140.150513 -32.550438 -13.120863 1.705143 0.000002 -47.679447 -20.661089 -0.000004 0.000002 0.000000 
11.655228 14.839435 260.301483 2.059616 11.464062 -1.476722 -0.000002 -0.000018 97.193115 -1.019655 -4.946141 -4.529881 0.000001 -0.000022 77.485817 2.537358 5.830106 -2.309290 0.000004 -6.357255 49.268795 2.983475 10.052136 3.597847 12.801849 1.680417 62.565601 0.115765 -8.915326 -21.638811 45.680611 -0.000002 0.000033 -8.280547 -10.019891 8.593307 89.572365 -0.000003 -0.000050 -1.829874 -9.714527 -2.571790 83.245720 0.000011 0.000004 3.934042 -9.488944 7.843678 -12.625233 1.680417 62.565628 -6.175521 -4.602705 18.209467 -45.680595 -0.000003 -0.000033 20.970066 21.657490 -2.170434 -89.572350 -0.000023 0.000052 67.490506 36.193258 47.235242 -83.245781 0.000016 0.000028 5.453285 5.738859 27.889553 31.786297 0.000003 -0.000017 18.849131 -35.370674 -14.727894 -0.000005 0.000016 -133.682144 6.883528 34.265901 7.058223 -0.000012 0.000001 -140.150497 15.183707 -0.764764 8.526183 -0.000002 -47.679424 -20.661108 -0.000000 0.000001 -0.000001 -31.786301 -0.000000 -0.000017 5.433450 -28.893199 31.154279 -0.000019 0.000026 -133.682129 -16.489134 40.188809 -20.693231 0.000010 0.000019 -140.150482 -32.549649 -12.894867 1.238034 0.000005 -47.679440 -20.661089 0.000003 0.000000 -0.000002 
11.856106 14.751429 260.090210 1.922479 11.422314 -1.445872 -0.000001 -0.000009 97.193146 -0.918915 -4.897422 -4.605043 -0.000003 -0.000016 77.485817 2.536109 5.873248 -2.284809 0.000005 -6.357275 49.268780 2.980797 10.061455 3.647805 12.801839 1.680420 62.565609 0.107742 -8.926381 -21.620154 45.680603 -0.000000 0.000018 -8.215664 -10.081271 8.638946 89.572342 0.000000 -0.000002 -1.800314 -9.706191 -2.537741 83.245766 0.000016 0.000024 3.969995 -9.478215 7.807839 -12.625240 1.680420 62.565670 -6.179905 -4.574553 18.169480 -45.680595 -0.000004 -0.000069 21.022120 21.556183 -2.240333 -89.572327 0.000002 -0.000027 67.712153 36.341480 47.225670 -83.245781 0.000061 0.000029 5.532297 5.799674 27.944906 31.786297 0.000003 -0.000006 18.775034 -35.378491 -14.957894 0.000003 0.000028 -133.682144 6.713644 34.544969 7.382772 0.000010 0.000012 -140.150528 15.330802 -1.065503 8.528037 -0.000005 -47.679428 -20.661087 -0.000002 -0.000000 0.000002 -31.786301 0.000008 0.000020 5.410900 -28.749567 31.301767 -0.000011 0.000019 -133.682159 -16.690008 40.132450 -20.765887 0.000007 0.000025 -140.150543 -32.482771 -12.485702 0.610482 0.000006 -47.679436 -20.661085 0.000001 -0.000002 -0.000000 
12.050469 14.678730 259.899475 1.781154 11.409217 -1.411268 -0.000002 -0.000018 97.193146 -0.811321 -4.911805 -4.662770 0.000002 -0.000009 77.485855 2.524039 5.955300 -2.276008 -0.000007 -6.357259 49.268768 2.966488 10.062898 3.677126 12.801849 1.680425 62.565697 0.135316 -8.922288 -21.641038 45.680553 -0.000001 -0.000008 -8.209180 -10.211280 8.717040 89.572334 0.000010 0.000034 -1.719680 -9.653451 -2.528737 83.245773 -0.000002 0.000032 3.997095 -9.419577 7.869700 -12.625238 1.680422 62.565697 -6.144207 -4.582167 18.154945 -45.680603 -0.000004 0.000027 21.071960 21.536881 -2.397041 -89.572350 0.000008 0.000010 67.792086 36.555579 47.341769 -83.245796 -0.000030 0.000035 5.441566 5.887716 27.988268 31.786297 0.000004 -0.000007 18.701558 -35.429837 -15.123588 0.000006 0.000009 -133.682144 6.865830 34.840068 7.420457 0.000010 0.000020 -140.150497 15.243761 -1.303803 8.540638 -0.000008 -47.679451 -20.661108 -0.000001 0.000000 0.000000 -31.786303 -0.000002 -0.000028 5.406622 -28.631111 31.446874 -0.000006 0.000023 -133.682159 -16.869181 40.034392 -20.834845 0.000010 0.000028 -140.150497 -32.245941 -11.969118 0.239554 0.000003 -47.679436 -20.661089 -0.000004 0.000000 -0.000002 
12.238825 14.623779 259.710663 1.651148 11.420197 -1.396284 -0.000001 -0.000018 97.193130 -0.738491 -4.944915 -4.757171 -0.000006 -0.000008 77.485847 2.539895 6.020116 -2.208094 0.000009 -6.357259 49.268768 2.975942 10.070332 3.685148 12.801847 1.680426 62.565681 0.161193 -8.913434 -21.584619 45.680649 -0.000001 0.000049 -8.194031 -10.216829 8.752680 89.572334 0.000002 0.000034 -1.647265 -9.635058 -2.468802 83.245781 0.000017 0.000026 3.999163 -9.399969 7.830461 -12.625242 1.680430 62.565704 -6.126391 -4.570956 18.172608 -45.680611 0.000003 -0.000003 21.113571 21.391335 -2.479515 -89.572350 -0.000027 0.000053 68.050493 36.692650 47.262635 -83.245781 0.000010 0.000029 5.531379 5.965138 27.896096 31.786297 -0.000001 0.000003 18.648689 -35.493259 -15.247274 -0.000010 0.000017 -133.682159 6.815066 35.102784 7.573592 0.000002 0.000008 -140.150482 15.305011 -1.512865 8.574778 0.000007 -47.679428 -20.661108 0.000001 -0.000000 0.000001 -31.786297 -0.000001 -0.000003 5.446621 -28.528729 31.640879 -0.000014 0.000012 -133.682114 -17.012027 39.906832 -20.970060 -0.000004 0.000024 -140.150543 -31.922924 -11.312534 -0.022097 -0.000001 -47.679440 -20.661089 -0.000002 0.000001 -0.000001 
12.465243 14.594669 259.533936 1.510207 11.451604 -1.404203 0.000000 -0.000018 97.193123 -0.655712 -5.000759 -4.783739 -0.000001 -0.000013 77.485748 2.539580 6.107819 -2.190652 -0.000003 -6.357269 49.268806 2.973436 10.043244 3.705130 12.801843 1.680428 62.565613 0.213990 -8.915943 -21.601457 45.680580 0.000000 0.000039 -8.195903 -10.332322 8.802174 89.572350 0.000008 -0.000025 -1.530377 -9.546975 -2.387585 83.245773 -0.000010 -0.000023 3.989403 -9.306137 7.910933 -12.625240 1.680425 62.565613 -6.100629 -4.541162 18.133995 -45.680611 -0.000004 -0.000065 21.161968 21.260861 -2.557308 -89.572350 -0.000030 -0.000038 68.261443 36.831747 47.232674 -83.245781 0.000013 0.000011 5.536107 6.019470 27.910028 31.786301 -0.000008 -0.000042 18.533650 -35.554512 -15.373089 -0.000015 0.000016 -133.682159 6.864436 35.372088 7.700432 -0.000004 0.000009 -140.150497 15.347954 -1.696493 8.522445 -0.000007 -47.679428 -20.661085 -0.000002 -0.000001 0.000001 -31.786301 -0.000000 -0.000023 5.473211 -28.534340 31.793930 -0.000008 0.000016 -133.682129 -17.365985 39.887270 -20.806329 0.000007 0.000035 -140.150513 -31.340784 -10.883357 -0.011428 0.000001 -47.679451 -20.661085 0.000002 -0.000001 0.000000 
12.652998 14.528403 259.376984 1.390003 11.456836 -1.395324 -0.000002 -0.000021 97.193153 -0.610844 -5.021346 -4.840737 -0.000003 -0.000017 77.485748 2.553886 6.149730 -2.171451 0.000001 -6.357252 49.268848 2.986296 10.069833 3.735912 12.801845 1.680423 62.565575 0.269242 -8.908496 -21.556719 45.680611 -0.000005 0.000018 -8.190528 -10.298073 8.793799 89.572357 0.000009 0.000013 -1.461147 -9.483106 -2.317755 83.245773 -0.000025 0.000023 4.030387 -9.234175 7.995658 -12.625243 1.680419 62.565601 -6.025792 -4.561850 18.126081 -45.680618 -0.000001 0.000038 21.177731 21.303813 -2.639923 -89.572319 -0.000002 -0.000016 68.392624 36.939910 47.337418 -83.245804 0.000024 0.000035 5.484960 5.955471 27.875064 31.786301 -0.000004 0.000008 18.429568 -35.603806 -15.505743 -0.000015 0.000017 -133.682175 6.822651 35.618689 7.837651 0.000002 0.000006 -140.150482 15.402128 -1.818670 8.461745 -0.000004 -47.679428 -20.661085 -0.000004 -0.000001 -0.000000 -31.786301 -0.000003 0.000004 5.543594 -28.402787 31.935974 0.000010 0.000016 -133.682144 -17.604495 39.809986 -20.930338 -0.000007 0.000034 -140.150513 -31.448899 -10.789511 -0.782810 -0.000000 -47.679428 -20.661087 -0.000004 -0.000001 -0.000000 
12.865375 14.485223 259.220276 1.294210 11.475599 -1.409606 -0.000000 -0.000020 97.193123 -0.566129 -5.047685 -4.876509 0.000007 -0.000014 77.485840 2.562369 6.184341 -2.141668 -0.000003 -6.357271 49.268757 2.992126 10.069069 3.741764 12.801851 1.680425 62.565666 0.298930 -8.915517 -21.545010 45.680607 -0.000001 0.000001 -8.173512 -10.276342 8.825692 89.572365 -0.000002 0.000010 -1.384422 -9.435582 -2.245524 83.245735 0.000005 -0.000036 4.002851 -9.185203 8.022294 -12.625233 1.680421 62.565670 -6.010454 -4.584194 18.119599 -45.680603 0.000002 -0.000007 21.228260 21.211281 -2.697317 -89.572342 0.000004 0.000027 68.649241 37.004640 47.250074 -83.245796 0.000028 0.000048 5.594293 5.959218 27.838441 31.786301 -0.000003 -0.000017 18.299381 -35.653885 -15.614615 -0.000013 0.000014 -133.682175 6.983753 35.858121 7.886312 0.000004 0.000008 -140.150467 15.322986 -1.911005 8.294713 0.000002 -47.679451 -20.661089 -0.000002 0.000001 0.000000 -31.786303 -0.000002 -0.000035 5.640480 -28.337249 32.160813 0.000002 0.000022 -133.682144 -17.421046 39.728362 -21.302530 0.000000 0.000024 -140.150497 -31.607353 -10.673562 -1.329957 0.000004 -47.679436 -20.661087 0.000000 -0.000001 -0.000001 
